<?xml version="1.0" standalone="no"?>
<!DOCTYPE svg PUBLIC "-//W3C//DTD SVG 20010904//EN"
 "http://www.w3.org/TR/2001/REC-SVG-20010904/DTD/svg10.dtd">
<svg version="1.0" xmlns="http://www.w3.org/2000/svg"
 width="1080.000000pt" height="1080.000000pt" viewBox="0 0 1080.000000 1080.000000"
 preserveAspectRatio="xMidYMid meet">

<g transform="translate(0.000000,1080.000000) scale(0.100000,-0.100000)"
fill="#000000" stroke="none">
<path d="M1511 9200 c-184 -49 -342 -197 -404 -379 l-22 -66 -3 -3308 c-2
-2903 0 -3316 13 -3380 41 -201 189 -364 395 -433 53 -18 178 -19 4015 -19
3837 0 3962 1 4015 19 151 51 278 157 344 289 72 142 66 -142 64 3524 l-3
3308 -22 66 c-63 184 -221 331 -408 379 -78 20 -112 20 -3994 19 -3838 0
-3917 0 -3990 -19z m1104 -674 c21 -11 53 -41 70 -64 26 -37 30 -53 30 -105 0
-76 -30 -134 -88 -174 -35 -24 -50 -28 -112 -28 -93 0 -145 31 -181 108 -42
92 -23 183 52 245 65 54 150 61 229 18z m476 3 c143 -72 142 -281 -3 -353 -31
-15 -68 -26 -92 -26 -118 1 -222 119 -201 229 28 146 165 216 296 150z m4607
-90 c-2 -6 -8 -10 -13 -10 -5 0 -11 4 -13 10 -2 6 4 11 13 11 9 0 15 -5 13
-11z m576 2 c3 -5 0 -11 -8 -14 -15 -6 -26 1 -26 15 0 11 27 10 34 -1z m-1043
-38 l12 -37 14 37 c9 20 21 37 29 37 11 0 14 -19 14 -85 0 -50 -4 -85 -10 -85
-6 0 -10 30 -11 68 -1 59 -2 64 -12 40 -6 -16 -16 -28 -23 -28 -7 0 -17 12
-22 28 -9 23 -11 17 -11 -40 -1 -38 -5 -68 -11 -68 -6 0 -10 35 -10 85 0 67 3
85 14 85 8 0 20 -17 27 -37z m302 17 c3 -14 14 -20 32 -20 15 0 24 -4 20 -10
-3 -5 -17 -10 -31 -10 -23 0 -25 -3 -22 -42 2 -36 7 -44 26 -46 29 -4 29 -22
-1 -22 -34 0 -47 19 -47 66 0 34 -4 43 -22 49 l-23 8 23 4 c14 3 22 12 22 24
0 25 16 25 23 -1z m577 0 c0 -15 7 -20 25 -20 14 0 25 -4 25 -10 0 -5 -11 -10
-25 -10 -23 0 -25 -4 -25 -45 0 -41 2 -45 25 -45 14 0 25 -5 25 -11 0 -6 -14
-9 -32 -7 -32 3 -33 4 -36 56 -3 44 -6 52 -23 52 -10 0 -19 5 -19 10 0 6 9 10
20 10 13 0 20 7 20 20 0 11 5 20 10 20 6 0 10 -9 10 -20z m720 0 c0 -15 7 -20
25 -20 14 0 25 -4 25 -10 0 -5 -11 -10 -25 -10 -23 0 -25 -4 -25 -45 0 -41 2
-45 25 -45 14 0 25 -5 25 -11 0 -6 -14 -9 -32 -7 -32 3 -33 4 -36 56 -3 44 -6
52 -23 52 -10 0 -19 5 -19 10 0 6 9 10 20 10 13 0 20 7 20 20 0 11 5 20 10 20
6 0 10 -9 10 -20z m290 0 c0 -15 7 -20 25 -20 14 0 25 -4 25 -10 0 -5 -11 -10
-25 -10 -23 0 -25 -4 -25 -45 0 -41 2 -45 25 -45 14 0 25 -4 25 -10 0 -5 -13
-10 -30 -10 -35 0 -50 23 -50 74 0 25 -4 36 -15 36 -8 0 -15 5 -15 10 0 6 7
10 15 10 8 0 15 9 15 20 0 11 7 20 15 20 8 0 15 -9 15 -20z m-1692 -32 c7 -7
12 -30 12 -53 0 -47 -13 -65 -50 -65 -37 0 -50 18 -50 65 0 47 13 65 50 65 14
0 31 -5 38 -12z m272 -43 c0 -48 2 -55 20 -55 11 0 20 -4 20 -10 0 -5 -25 -10
-55 -10 -30 0 -55 5 -55 10 0 6 11 10 25 10 23 0 25 4 25 45 0 41 -2 45 -25
45 -14 0 -25 5 -25 10 0 6 16 10 35 10 l35 0 0 -55z m100 7 c8 -23 17 -42 21
-42 3 0 12 20 19 45 7 25 19 45 26 45 10 0 8 -15 -9 -62 -29 -82 -45 -81 -74
0 -16 43 -19 62 -10 60 6 -3 19 -23 27 -46z m210 29 c13 -25 13 -111 0 -111
-5 0 -10 5 -10 11 0 8 -4 8 -14 0 -24 -20 -70 -10 -74 17 -5 32 15 52 49 52
18 0 29 5 29 14 0 18 -23 27 -41 15 -8 -5 -20 -9 -28 -9 -11 0 -11 3 -1 15 18
22 77 19 90 -4z m260 -36 c0 -48 2 -55 20 -55 11 0 20 -4 20 -10 0 -5 -25 -10
-55 -10 -30 0 -55 5 -55 10 0 6 11 10 25 10 23 0 25 4 25 45 0 38 -3 45 -20
45 -11 0 -20 5 -20 10 0 6 14 10 30 10 30 0 30 -1 30 -55z m170 36 c15 -29 12
-77 -6 -95 -8 -9 -28 -16 -44 -16 -33 0 -50 23 -50 65 0 45 17 65 55 65 24 0
38 -6 45 -19z m137 8 c15 -13 18 -119 4 -119 -6 0 -11 24 -13 53 -3 48 -5 52
-28 52 -23 0 -25 -4 -28 -52 -4 -75 -22 -66 -22 10 l0 64 37 1 c20 1 42 -3 50
-9z m377 -11 l15 -21 20 24 c10 13 22 21 26 17 4 -4 -2 -19 -14 -33 l-20 -27
25 -34 c20 -25 23 -34 11 -34 -8 0 -23 12 -32 27 l-18 26 -14 -26 c-7 -15 -21
-27 -29 -27 -12 0 -11 6 7 31 19 27 20 33 8 57 -7 15 -15 30 -17 35 -9 17 18
5 32 -15z m-254 -88 c0 -11 -6 -20 -14 -20 -18 0 -29 16 -21 30 11 18 35 11
35 -10z m-6700 -1233 c0 -8 -11 -19 -24 -26 -35 -19 -46 -53 -46 -137 0 -73 1
-77 35 -111 19 -19 35 -39 35 -44 0 -19 -33 -8 -60 19 -72 73 -61 253 18 296
34 19 42 19 42 3z m3450 3 c0 -6 -15 -23 -32 -39 -33 -29 -33 -30 -33 -121 0
-91 0 -92 33 -121 17 -16 32 -33 32 -39 0 -13 -6 -13 -40 5 -46 24 -60 62 -60
161 l0 86 39 39 c38 38 61 49 61 29z m130 -6 c46 -28 60 -63 60 -154 0 -93
-15 -132 -60 -155 -53 -27 -55 -12 -5 38 34 34 35 37 35 117 0 80 -1 83 -35
117 -50 50 -48 68 5 37z m530 3 c0 -7 -10 -17 -22 -22 -20 -9 -23 -18 -23 -63
0 -36 -5 -56 -15 -62 -13 -9 -13 -11 0 -19 8 -6 14 -24 13 -48 -2 -61 5 -83
27 -83 11 0 20 -7 20 -15 0 -19 -30 -19 -58 1 -19 13 -22 24 -22 75 l0 59 -35
0 c-24 0 -35 5 -35 15 0 8 9 15 19 15 44 0 51 10 51 71 0 48 4 60 22 73 27 19
58 21 58 3z m-2853 -18 c16 -16 5 -39 -17 -39 -25 0 -35 18 -20 35 15 18 22
19 37 4z m-1019 -21 c-3 -7 -22 -15 -44 -18 -31 -4 -40 -10 -42 -27 -3 -19 2
-22 39 -25 58 -4 63 -26 7 -30 l-43 -3 -3 -72 c-2 -56 -6 -73 -17 -73 -12 0
-15 16 -15 75 l0 75 -30 0 c-20 0 -30 5 -30 15 0 10 10 15 30 15 24 0 30 4 30
21 0 44 18 59 71 59 36 0 49 -4 47 -12z m782 -18 c0 -28 2 -30 40 -30 29 0 40
-4 40 -15 0 -11 -11 -15 -40 -15 l-41 0 3 -67 3 -68 33 -3 c43 -4 44 -32 1
-32 -60 0 -69 13 -69 95 l0 75 -30 0 c-20 0 -30 5 -30 15 0 10 10 15 30 15 27
0 30 3 30 30 0 20 5 30 15 30 10 0 15 -10 15 -30z m2160 0 c0 -28 3 -30 35
-30 24 0 35 -5 35 -15 0 -10 -11 -15 -35 -15 l-35 0 0 -70 0 -70 35 0 c24 0
35 -5 35 -15 0 -11 -11 -15 -39 -15 -54 0 -71 25 -71 107 0 61 -1 63 -25 63
-16 0 -25 6 -25 15 0 9 9 15 25 15 21 0 25 5 25 30 0 23 4 30 20 30 16 0 20
-7 20 -30z m-2850 -115 l5 -80 35 0 35 0 3 83 c2 64 6 82 17 82 12 0 15 -17
15 -82 0 -96 -13 -118 -70 -118 -63 0 -75 16 -79 115 -3 80 -2 87 15 83 16 -3
20 -15 24 -83z m210 75 c0 -7 6 -7 19 0 30 16 59 12 81 -10 17 -17 20 -33 20
-100 0 -64 -3 -80 -15 -80 -12 0 -15 14 -15 66 0 76 -12 104 -43 104 -38 0
-47 -19 -47 -97 0 -58 -3 -73 -15 -73 -12 0 -15 18 -15 100 0 82 3 100 15 100
8 0 15 -5 15 -10z m319 -16 c12 -15 21 -31 21 -35 0 -17 -30 -9 -40 12 -9 15
-19 19 -43 17 -26 -2 -33 -9 -41 -35 -5 -20 -5 -46 0 -65 8 -27 15 -34 40 -36
19 -2 36 3 44 12 13 17 40 22 40 8 0 -5 -9 -18 -20 -30 -31 -33 -92 -30 -119
4 -31 39 -29 117 4 149 34 35 86 34 114 -1z m401 -59 l0 -85 30 0 c20 0 30 -5
30 -15 0 -12 -16 -15 -80 -15 -64 0 -80 3 -80 15 0 10 11 15 35 15 l35 0 0 70
0 70 -30 0 c-20 0 -30 5 -30 15 0 11 12 15 45 15 l45 0 0 -85z m238 69 c19
-13 22 -24 22 -81 0 -48 -5 -72 -17 -85 -20 -22 -80 -24 -111 -2 -19 13 -22
24 -22 80 0 51 4 68 20 84 24 24 77 26 108 4z m122 6 c0 -7 6 -7 19 0 30 16
59 12 81 -10 17 -17 20 -33 20 -100 0 -64 -3 -80 -15 -80 -12 0 -15 14 -15 66
0 76 -12 104 -43 104 -38 0 -47 -19 -47 -97 0 -58 -3 -73 -15 -73 -12 0 -15
18 -15 100 0 82 3 100 15 100 8 0 15 -5 15 -10z m436 -1 c4 -8 9 -8 17 0 6 6
26 11 43 11 35 0 64 -29 64 -62 0 -25 -23 -22 -35 5 -6 12 -20 23 -33 25 -41
6 -52 -14 -52 -94 0 -67 -2 -74 -20 -74 -19 0 -20 7 -20 93 0 52 3 97 7 100 9
10 21 8 29 -4z m309 -14 c16 -15 25 -36 25 -55 l0 -30 -65 0 c-57 0 -65 -2
-65 -19 0 -39 46 -51 103 -26 12 5 17 3 17 -9 0 -38 -96 -50 -130 -16 -16 16
-20 33 -20 80 0 47 4 64 20 80 29 29 84 27 115 -5z m115 9 c0 -14 1 -14 16 0
20 21 63 20 86 -1 25 -22 26 -138 1 -165 -21 -24 -78 -24 -92 0 -8 13 -10 7
-11 -30 0 -36 -4 -48 -15 -48 -13 0 -15 21 -15 130 0 109 2 130 15 130 8 0 15
-7 15 -16z m317 -6 c15 -14 23 -33 23 -55 l0 -33 -65 0 c-67 0 -74 -5 -55 -41
12 -21 74 -27 85 -9 9 15 25 12 25 -5 0 -37 -97 -48 -130 -15 -28 28 -28 117
1 154 27 34 82 36 116 4z m211 6 c20 -14 22 -24 22 -100 0 -68 -3 -84 -15 -84
-8 0 -15 7 -15 16 0 14 -1 14 -16 0 -36 -36 -114 -8 -114 41 0 38 34 63 85 63
30 0 45 4 45 13 0 34 -52 49 -90 25 -29 -18 -39 1 -11 23 28 23 78 25 109 3z
m-2358 -456 c0 -7 -13 -20 -29 -30 -68 -38 -68 -218 0 -256 30 -18 39 -42 15
-42 -23 0 -68 42 -82 76 -8 19 -14 61 -14 94 0 33 6 75 14 94 21 51 96 101 96
64z m135 -10 c38 -29 55 -76 55 -148 0 -33 -6 -75 -14 -94 -14 -34 -59 -76
-82 -76 -24 0 -15 24 15 42 20 11 33 29 40 55 24 85 6 175 -40 201 -30 18 -39
42 -15 42 7 0 26 -10 41 -22z m-415 -48 c0 -28 2 -30 40 -30 29 0 40 -4 40
-15 0 -11 -11 -15 -40 -15 l-41 0 3 -67 3 -68 38 -3 c53 -5 51 -32 -2 -32 -58
0 -71 18 -71 101 l0 69 -30 0 c-20 0 -30 5 -30 15 0 10 10 15 30 15 27 0 30 3
30 30 0 20 5 30 15 30 10 0 15 -10 15 -30z m-382 -46 c16 -11 22 -25 22 -55
l0 -39 -60 0 c-51 0 -60 -3 -60 -18 0 -39 49 -55 90 -30 27 17 37 2 15 -22
-23 -25 -90 -27 -117 -3 -14 12 -18 31 -18 84 0 59 3 70 22 83 12 9 36 16 53
16 17 0 41 -7 53 -16z m221 -10 c17 -22 21 -41 21 -100 0 -59 -3 -74 -15 -74
-8 0 -15 7 -15 17 0 15 -1 15 -18 0 -22 -20 -83 -22 -100 -5 -7 7 -12 27 -12
44 0 41 30 64 83 64 34 0 38 3 35 23 -4 26 -40 35 -74 17 -35 -19 -52 -8 -26
18 33 33 94 30 121 -4z m826 -4 c0 -16 -6 -26 -18 -28 -19 -4 -32 20 -23 44 9
25 41 13 41 -16z m-15 -170 c-11 -28 -20 -53 -20 -55 0 -3 -7 -5 -15 -5 -18 0
-18 7 -3 65 10 37 16 45 35 45 l23 0 -20 -50z m60 -273 c0 -8 -11 -19 -24 -26
-35 -19 -46 -53 -46 -137 0 -73 1 -77 35 -111 19 -19 35 -39 35 -44 0 -19 -33
-8 -60 19 -72 73 -61 253 18 296 34 19 42 19 42 3z m138 -12 c44 -37 55 -73
50 -166 -3 -79 -4 -82 -40 -115 -21 -19 -45 -34 -53 -34 -22 0 -18 28 6 35 36
12 59 63 59 133 0 70 -16 111 -54 136 -15 9 -26 21 -26 26 0 18 28 11 58 -15z
m-1056 -127 l3 -113 38 -3 c24 -2 37 -8 37 -18 0 -10 -12 -14 -44 -14 -65 0
-76 21 -76 137 l0 93 -30 0 c-20 0 -30 5 -30 15 0 11 12 15 50 15 l49 0 3
-112z m-167 32 c22 -24 12 -39 -15 -22 -26 16 -77 15 -83 -1 -8 -22 5 -34 48
-41 53 -10 65 -22 65 -62 0 -39 -21 -54 -75 -54 -43 0 -75 15 -75 35 0 17 21
20 37 4 6 -6 26 -9 44 -7 26 2 34 8 34 23 0 14 -11 22 -41 30 -72 18 -94 56
-57 97 23 26 94 25 118 -2z m430 -5 c16 -15 25 -36 25 -55 l0 -30 -65 0 c-57
0 -65 -2 -65 -19 0 -39 46 -51 103 -26 12 5 17 3 17 -9 0 -38 -96 -50 -130
-16 -16 16 -20 33 -20 80 0 47 4 64 20 80 29 29 84 27 115 -5z m215 5 c12 -12
20 -33 20 -55 l0 -35 -61 0 c-60 0 -60 0 -57 -27 2 -23 9 -29 32 -31 16 -2 40
2 53 9 30 16 41 4 18 -21 -13 -14 -31 -20 -61 -20 -35 0 -47 5 -64 28 -30 37
-24 126 10 154 30 24 85 23 110 -2z m110 3 c0 -15 1 -15 18 0 28 25 67 21 91
-9 33 -42 26 -141 -13 -166 -19 -13 -59 -9 -78 9 -17 15 -18 14 -18 -30 0 -35
-4 -47 -15 -47 -13 0 -15 21 -15 130 0 109 2 130 15 130 8 0 15 -7 15 -17z
m715 -13 c0 -16 -6 -26 -18 -28 -19 -4 -32 20 -23 44 9 25 41 13 41 -16z m-15
-170 c-11 -28 -20 -53 -20 -55 0 -3 -7 -5 -15 -5 -18 0 -18 7 -3 65 10 37 16
45 35 45 l23 0 -20 -50z m490 -270 c0 -6 -15 -23 -32 -39 -33 -29 -33 -30 -33
-121 0 -91 0 -92 33 -121 17 -16 32 -33 32 -39 0 -13 -6 -13 -40 5 -46 24 -60
62 -60 161 l0 86 39 39 c38 38 61 49 61 29z m130 -6 c46 -28 60 -63 60 -154 0
-93 -15 -132 -60 -155 -53 -27 -55 -12 -5 38 34 34 35 37 35 117 0 80 -1 83
-35 117 -50 50 -48 68 5 37z m-2180 -70 c0 -41 1 -44 16 -30 20 21 63 20 86
-1 25 -22 26 -138 1 -165 -21 -24 -78 -24 -92 0 -10 16 -10 16 -11 0 0 -10 -7
-18 -15 -18 -13 0 -15 21 -15 130 0 109 2 130 15 130 11 0 15 -12 15 -46z
m531 -64 c15 -58 31 -115 34 -127 4 -18 1 -23 -14 -23 -14 0 -21 10 -25 36 -7
34 -8 35 -48 32 -38 -3 -43 -6 -50 -35 -8 -30 -38 -48 -38 -23 0 13 60 232 67
243 3 5 14 7 25 5 18 -2 26 -21 49 -108z m3274 56 c79 -33 99 -146 37 -208
-80 -81 -222 -20 -222 94 0 37 34 90 71 110 41 22 68 23 114 4z m-3488 -28
c15 -14 23 -33 23 -55 l0 -33 -65 0 c-67 0 -74 -5 -55 -41 12 -21 74 -27 85
-9 9 15 25 12 25 -5 0 -37 -97 -48 -130 -15 -28 28 -28 117 1 154 27 34 82 36
116 4z m304 20 c0 -2 6 -43 13 -93 l12 -90 14 88 c8 56 19 91 27 94 21 8 24 1
37 -89 13 -90 19 -84 32 30 4 42 11 62 20 62 17 0 16 6 4 -83 -16 -110 -19
-117 -39 -117 -23 0 -27 10 -36 94 -4 37 -9 65 -11 63 -2 -2 -9 -38 -15 -80
-10 -70 -14 -77 -34 -77 -20 0 -23 7 -33 83 -15 100 -15 117 -2 117 6 0 10 -1
11 -2z m344 -23 c16 -15 25 -36 25 -55 l0 -30 -65 0 c-57 0 -65 -2 -65 -19 0
-39 46 -51 103 -26 12 5 17 3 17 -9 0 -38 -96 -50 -130 -16 -16 16 -20 33 -20
80 0 47 4 64 20 80 29 29 84 27 115 -5z m220 5 c22 -24 12 -39 -15 -22 -26 16
-77 15 -83 -1 -8 -22 5 -34 48 -41 53 -10 65 -22 65 -62 0 -39 -21 -54 -75
-54 -43 0 -75 15 -75 35 0 17 21 20 37 4 6 -6 26 -9 44 -7 26 2 34 8 34 23 0
14 -11 22 -41 30 -72 18 -94 56 -57 97 23 26 94 25 118 -2z m214 -6 c15 -20
21 -41 21 -80 0 -68 -22 -94 -79 -94 -53 0 -81 34 -81 100 0 65 28 100 80 100
30 0 43 -6 59 -26z m156 16 c4 -6 14 -4 25 3 15 9 25 9 38 1 24 -16 31 -194 7
-194 -12 0 -15 15 -15 83 0 88 -3 99 -26 90 -10 -4 -14 -26 -14 -89 0 -67 -3
-84 -15 -84 -11 0 -15 19 -17 88 -2 69 -6 87 -18 87 -12 0 -16 -18 -18 -87 -2
-69 -6 -88 -17 -88 -12 0 -15 19 -15 98 l0 98 40 1 c22 1 42 -2 45 -7z m275
-10 c12 -12 20 -33 20 -55 l0 -35 -61 0 c-60 0 -60 0 -57 -27 2 -23 9 -29 32
-31 16 -2 40 2 53 9 30 16 41 4 18 -21 -13 -14 -31 -20 -61 -20 -35 0 -47 5
-64 28 -30 37 -24 126 10 154 30 24 85 23 110 -2z m614 3 c9 -21 -16 -46 -37
-37 -17 6 -23 35 -10 47 12 13 41 7 47 -10z m-7 -145 c-32 -81 -41 -98 -53
-98 -17 0 -17 7 -3 51 6 19 12 40 15 47 2 6 13 12 25 12 13 0 19 -5 16 -12z
m263 -321 c0 -8 -11 -19 -24 -26 -35 -19 -46 -53 -46 -137 0 -73 1 -77 35
-111 19 -19 35 -39 35 -44 0 -19 -33 -8 -60 19 -72 73 -61 253 18 296 34 19
42 19 42 3z m138 -12 c44 -37 55 -73 50 -166 -3 -79 -4 -82 -40 -115 -21 -19
-45 -34 -53 -34 -22 0 -18 28 6 35 36 12 59 63 59 133 0 70 -16 111 -54 136
-15 9 -26 21 -26 26 0 18 28 11 58 -15z m-2578 -45 c0 -28 2 -30 40 -30 54 0
56 -27 3 -32 -37 -3 -38 -4 -41 -47 -5 -73 3 -91 43 -91 24 0 35 -5 35 -15 0
-21 -68 -20 -92 2 -14 13 -18 31 -18 85 l0 68 -31 0 c-38 0 -35 24 4 28 22 3
27 8 27 33 0 19 5 29 15 29 10 0 15 -10 15 -30z m694 8 c9 -12 16 -26 16 -30
0 -14 -29 -8 -38 8 -12 21 -56 14 -60 -10 -3 -14 27 -68 65 -115 2 -3 10 5 19
17 8 12 22 22 30 22 12 0 11 -7 -5 -38 -19 -37 -19 -38 1 -62 18 -23 19 -25 3
-28 -9 -2 -22 4 -29 13 -11 15 -13 15 -25 1 -17 -21 -75 -21 -95 0 -20 20 -21
97 -2 117 10 10 13 27 9 57 -5 35 -2 46 12 57 30 21 81 16 99 -9z m126 -24 c0
-41 1 -44 16 -30 20 21 63 20 86 -1 25 -22 26 -138 1 -165 -21 -24 -78 -24
-92 0 -10 16 -10 16 -11 0 0 -10 -7 -18 -15 -18 -13 0 -15 21 -15 130 0 109 2
130 15 130 11 0 15 -12 15 -46z m910 16 c0 -28 2 -30 40 -30 29 0 40 -4 40
-15 0 -11 -11 -15 -40 -15 l-41 0 3 -67 3 -68 38 -3 c53 -5 51 -32 -2 -32 -58
0 -71 18 -71 101 l0 69 -30 0 c-20 0 -30 5 -30 15 0 10 10 15 30 15 27 0 30 3
30 30 0 20 5 30 15 30 10 0 15 -10 15 -30z m170 -10 c0 -37 2 -40 19 -30 30
16 59 12 81 -10 17 -17 20 -33 20 -100 0 -64 -3 -80 -15 -80 -12 0 -15 14 -15
66 0 76 -12 104 -43 104 -38 0 -47 -19 -47 -97 0 -58 -3 -73 -15 -73 -13 0
-15 21 -15 130 0 109 2 130 15 130 11 0 15 -11 15 -40z m-2055 -40 c22 -24 12
-39 -15 -22 -26 16 -77 15 -83 -1 -8 -22 5 -34 48 -41 53 -10 65 -22 65 -62 0
-39 -21 -54 -75 -54 -43 0 -75 15 -75 35 0 17 21 20 37 4 6 -6 26 -9 44 -7 26
2 34 8 34 23 0 14 -11 22 -41 30 -72 18 -94 56 -57 97 23 26 94 25 118 -2z
m430 -5 c33 -32 35 -110 4 -149 -26 -33 -88 -37 -119 -6 -29 29 -28 125 2 157
30 32 81 31 113 -2z m115 15 c0 -7 6 -7 19 0 30 16 59 12 81 -10 25 -25 28
-124 4 -158 -17 -25 -71 -31 -92 -10 -9 9 -12 3 -12 -30 0 -31 -4 -42 -15 -42
-13 0 -15 21 -15 130 0 109 2 130 15 130 8 0 15 -5 15 -10z m650 -7 c0 -15 1
-15 18 0 38 35 112 6 112 -43 0 -28 -25 -25 -38 6 -10 21 -18 25 -45 22 l-32
-3 -3 -82 c-3 -75 -5 -83 -22 -83 -19 0 -20 7 -20 100 0 82 3 100 15 100 8 0
15 -7 15 -17z m308 1 c16 -11 22 -25 22 -55 l0 -39 -60 0 c-51 0 -60 -3 -60
-18 0 -39 49 -55 90 -30 27 17 37 2 15 -22 -23 -25 -90 -27 -117 -3 -14 12
-18 31 -18 84 0 59 3 70 22 83 12 9 36 16 53 16 17 0 41 -7 53 -16z m222 -4
c17 -17 20 -33 20 -100 0 -64 -3 -80 -15 -80 -8 0 -15 7 -15 17 0 15 -1 15
-18 0 -23 -21 -76 -22 -96 -1 -24 23 -20 70 6 88 12 9 42 16 65 16 29 0 43 4
43 13 0 34 -52 49 -90 25 -27 -17 -37 -2 -15 22 25 27 88 27 115 0z m645 -5
c16 -15 25 -36 25 -55 l0 -30 -65 0 c-57 0 -65 -2 -65 -19 0 -39 46 -51 103
-26 12 5 17 3 17 -9 0 -38 -96 -50 -130 -16 -16 16 -20 33 -20 80 0 47 4 64
20 80 29 29 84 27 115 -5z m610 -5 c0 -29 -32 -41 -41 -16 -9 24 4 48 23 44
12 -2 18 -12 18 -28z m-15 -170 c-11 -28 -20 -53 -20 -55 0 -3 -7 -5 -15 -5
-18 0 -18 7 -3 65 10 37 16 45 35 45 l23 0 -20 -50z m-1660 -273 c0 -8 -11
-19 -26 -25 -72 -33 -72 -231 0 -264 15 -6 26 -17 26 -25 0 -23 -29 -14 -68
21 -36 33 -37 36 -40 115 -3 51 1 93 8 112 22 51 100 103 100 66z m130 -7 c52
-37 75 -142 50 -232 -11 -37 -60 -88 -86 -88 -22 0 -16 25 10 39 34 19 46 52
46 132 0 77 -17 124 -50 134 -21 7 -28 35 -9 35 6 0 23 -9 39 -20z m-410 -50
c0 -28 2 -30 40 -30 29 0 40 -4 40 -15 0 -11 -11 -15 -40 -15 l-41 0 3 -67 3
-68 33 -3 c43 -4 44 -32 1 -32 -60 0 -69 13 -69 95 l0 75 -30 0 c-20 0 -30 5
-30 15 0 10 10 15 30 15 27 0 30 3 30 30 0 20 5 30 15 30 10 0 15 -10 15 -30z
m-1120 -46 c0 -14 1 -14 16 0 34 35 104 8 104 -41 0 -29 -22 -30 -35 0 -6 12
-20 23 -33 25 -41 6 -52 -14 -52 -94 0 -59 -3 -74 -15 -74 -12 0 -15 18 -15
100 0 82 3 100 15 100 8 0 15 -7 15 -16z m307 -6 c15 -14 23 -33 23 -55 l0
-33 -65 0 c-67 0 -74 -5 -55 -41 12 -21 74 -27 85 -9 9 15 25 12 25 -5 0 -37
-97 -48 -130 -15 -28 28 -28 117 1 154 27 34 82 36 116 4z m113 5 c0 -15 1
-15 18 0 28 25 67 21 91 -9 33 -42 26 -141 -13 -166 -19 -13 -59 -9 -78 9 -17
15 -18 14 -18 -30 0 -35 -4 -47 -15 -47 -13 0 -15 21 -15 130 0 109 2 130 15
130 8 0 15 -7 15 -17z m320 -3 c12 -12 20 -33 20 -55 l0 -35 -61 0 c-60 0 -60
0 -57 -27 2 -23 9 -29 32 -31 16 -2 40 2 53 9 30 16 41 4 18 -21 -13 -14 -31
-20 -61 -20 -35 0 -47 5 -64 28 -30 37 -24 126 10 154 30 24 85 23 110 -2z
m208 4 c20 -14 22 -24 22 -100 0 -68 -3 -84 -15 -84 -8 0 -15 5 -15 12 0 9 -3
9 -12 0 -7 -7 -29 -12 -50 -12 -29 0 -41 6 -54 25 -33 50 6 95 82 95 31 0 35
3 32 23 -4 27 -49 35 -85 16 -32 -17 -43 -1 -14 22 28 23 78 25 109 3z m840
-10 c4 -26 -26 -40 -45 -21 -8 7 -11 21 -7 31 9 24 48 17 52 -10z m-21 -176
c-36 -83 -61 -74 -35 13 9 31 16 39 34 39 l24 0 -23 -52z m-1749 -274 c18 -13
22 -25 22 -73 0 -61 7 -71 51 -71 10 0 19 -7 19 -15 0 -10 -11 -15 -35 -15
l-35 0 0 -57 c0 -63 -18 -93 -57 -93 -30 0 -31 28 0 32 19 3 22 9 22 55 1 28
7 59 15 68 11 14 12 18 0 25 -8 5 -14 28 -14 62 -1 45 -4 54 -23 63 -13 5 -23
15 -23 22 0 18 31 16 58 -3z m220 -9 c44 -37 55 -73 50 -166 -3 -79 -4 -82
-40 -115 -21 -19 -45 -34 -53 -34 -22 0 -18 28 6 35 36 12 59 63 59 133 0 70
-16 111 -54 136 -15 9 -26 21 -26 26 0 18 28 11 58 -15z m292 15 c0 -6 -15
-23 -32 -39 -33 -29 -33 -30 -33 -121 0 -91 0 -92 33 -121 17 -16 32 -33 32
-39 0 -13 -6 -13 -40 5 -46 24 -60 62 -60 161 l0 86 39 39 c38 38 61 49 61 29z
m130 -6 c46 -28 60 -63 60 -154 0 -93 -15 -132 -60 -155 -53 -27 -55 -12 -5
38 34 34 35 37 35 117 0 80 -1 83 -35 117 -50 50 -48 68 5 37z m264 -101 c4
-9 1 -23 -7 -30 -7 -8 -21 -11 -30 -7 -17 6 -23 35 -10 47 12 13 41 7 47 -10z
m-7 -145 c-32 -81 -41 -98 -53 -98 -17 0 -17 7 -3 51 6 19 12 40 15 47 2 6 13
12 25 12 13 0 19 -5 16 -12z m-879 -925 c-2 -22 1 -29 19 -31 17 -2 23 3 28
28 8 36 24 32 17 -5 -3 -19 0 -25 14 -26 16 0 15 -2 -3 -9 -13 -5 -23 -14 -23
-19 0 -5 -3 -16 -6 -25 -4 -12 0 -16 15 -16 28 0 27 -18 -1 -22 -15 -2 -24
-11 -26 -25 -2 -13 -8 -23 -14 -23 -6 0 -8 10 -4 25 6 22 3 25 -18 25 -18 0
-26 -6 -28 -22 -2 -12 -8 -23 -14 -25 -7 -2 -10 6 -7 22 4 18 1 25 -11 25 -9
0 -16 5 -16 10 0 6 9 10 20 10 11 0 20 3 20 8 0 4 3 17 6 30 5 18 2 22 -17 23
l-24 2 23 4 c13 3 25 11 28 19 2 8 6 21 9 29 8 25 17 17 13 -12z m247 7 c18
-15 20 -71 3 -88 -7 -7 -31 -12 -55 -12 l-43 0 0 -40 c0 -22 -4 -40 -10 -40
-6 0 -10 40 -10 101 l0 102 50 -5 c27 -3 56 -11 65 -18z m1725 -40 c11 0 22
11 29 30 5 17 13 30 16 30 4 0 4 -13 0 -30 -6 -26 -4 -30 17 -31 23 -1 23 -1
-2 -8 -29 -8 -43 -61 -16 -61 9 0 16 -4 16 -10 0 -5 -9 -10 -20 -10 -13 0 -22
-9 -26 -25 -3 -14 -10 -25 -15 -25 -5 0 -7 11 -3 25 5 22 3 25 -20 25 -21 0
-26 -5 -26 -25 0 -14 -5 -25 -11 -25 -7 0 -9 10 -7 25 4 19 1 25 -13 25 -11 0
-19 5 -19 10 0 6 9 10 19 10 32 0 44 55 14 63 -14 4 -14 5 3 6 16 1 24 10 30
34 l8 32 3 -32 c3 -24 9 -33 23 -33z m203 51 c23 -9 43 -38 33 -48 -2 -3 -14
5 -25 16 -25 25 -54 27 -75 5 -28 -28 -14 -47 43 -58 43 -8 61 -23 61 -49 0
-31 -29 -57 -64 -57 -36 0 -76 24 -76 46 0 20 13 17 28 -7 10 -15 21 -19 50
-17 32 3 37 6 37 28 0 21 -8 27 -48 40 -53 17 -72 39 -62 71 11 32 55 46 98
30z m247 -91 c0 -60 -4 -100 -10 -100 -11 0 -14 182 -3 193 12 13 13 7 13 -93z
m748 73 c-2 -22 1 -29 19 -31 17 -2 23 3 28 28 8 36 24 32 17 -5 -3 -19 0 -25
14 -26 16 0 15 -2 -3 -9 -13 -5 -23 -14 -23 -19 0 -5 -3 -16 -6 -25 -4 -12 0
-16 15 -16 28 0 27 -18 -1 -22 -15 -2 -24 -11 -26 -25 -2 -13 -8 -23 -14 -23
-6 0 -8 10 -4 25 6 22 3 25 -18 25 -18 0 -26 -6 -28 -22 -2 -12 -8 -23 -14
-25 -7 -2 -10 6 -7 22 4 18 1 25 -11 25 -9 0 -16 5 -16 10 0 6 9 10 20 10 11
0 20 3 20 8 0 4 3 17 6 30 5 18 2 22 -17 23 l-24 2 23 4 c13 3 25 11 28 19 2
8 6 21 9 29 8 25 17 17 13 -12z m909 -125 c-2 -29 -3 -6 -3 52 0 58 1 81 3 53
2 -29 2 -77 0 -105z m933 52 c0 -60 -4 -100 -10 -100 -5 0 -10 5 -10 10 0 6
-8 5 -20 -2 -48 -30 -105 30 -84 89 12 34 56 53 84 35 19 -11 20 -9 20 28 0
22 5 40 10 40 6 0 10 -40 10 -100z m470 -2 c0 -76 -3 -99 -11 -91 -8 8 -16 9
-29 1 -49 -31 -104 33 -80 92 14 33 39 45 76 36 21 -6 24 -3 24 22 0 25 7 42
17 42 2 0 3 -46 3 -102z m-4020 82 c0 -5 -7 -10 -15 -10 -8 0 -15 5 -15 10 0
6 7 10 15 10 8 0 15 -4 15 -10z m1060 0 c0 -5 -7 -10 -15 -10 -8 0 -15 -7 -15
-15 0 -8 7 -15 15 -15 8 0 15 -4 15 -10 0 -5 -7 -10 -15 -10 -12 0 -15 -14
-17 -62 l-2 -63 -3 63 c-3 46 -8 62 -18 62 -8 0 -15 5 -15 10 0 6 7 10 15 10
8 0 15 8 15 18 0 10 3 22 7 25 10 11 33 8 33 -3z m-2150 -50 c0 -5 -10 -10
-22 -12 -20 -3 -23 -10 -26 -60 -4 -81 -22 -72 -22 10 l0 69 35 1 c19 1 35 -3
35 -8z m130 -10 c41 -41 12 -120 -45 -120 -14 0 -34 9 -45 20 -41 41 -12 120
45 120 14 0 34 -9 45 -20z m140 10 c9 -6 17 -5 22 3 4 7 8 -27 8 -75 0 -79 -2
-88 -22 -102 -12 -9 -30 -16 -39 -16 -22 0 -66 36 -57 46 5 4 16 0 26 -9 25
-23 59 -21 72 2 17 33 12 39 -28 34 -47 -6 -72 14 -72 59 0 54 48 85 90 58z
m150 0 c0 -6 -9 -10 -19 -10 -26 0 -34 -15 -42 -75 -6 -49 -6 -48 -8 20 l-1
70 35 2 c19 2 35 -2 35 -7z m114 -6 c11 -10 16 -34 16 -68 0 -53 0 -53 -32
-54 -66 -2 -80 6 -76 41 3 30 6 32 46 35 34 3 43 7 40 20 -4 21 -44 28 -64 11
-19 -16 -30 -4 -14 16 16 20 64 19 84 -1z m144 4 c9 -8 16 -8 24 0 19 19 56
14 72 -10 18 -25 22 -118 6 -118 -5 0 -10 21 -10 48 0 58 -10 75 -41 70 -22
-3 -24 -9 -27 -60 -2 -32 -7 -58 -12 -58 -5 0 -10 26 -12 58 -3 56 -3 57 -33
57 -30 0 -30 -1 -33 -57 -4 -81 -22 -73 -22 10 l0 68 38 1 c20 1 43 -4 50 -9z
m236 3 c4 -6 18 -5 36 2 50 19 65 2 66 -74 l2 -64 -7 52 c-7 58 -20 77 -47 71
-16 -3 -20 -14 -22 -61 -4 -69 -22 -77 -22 -9 0 58 -10 75 -41 70 -22 -3 -24
-9 -27 -60 -4 -81 -22 -73 -22 10 l0 67 39 3 c22 1 42 -2 45 -7z m163 -98 c-2
-21 -4 -4 -4 37 0 41 2 58 4 38 2 -21 2 -55 0 -75z m149 96 c10 -8 14 -31 13
-73 l-2 -61 -6 50 c-8 62 -16 75 -46 75 -30 0 -38 -13 -46 -75 -6 -49 -6 -48
-8 20 l-1 70 41 3 c23 1 47 -3 55 -9z m152 -1 c9 -9 12 -9 12 0 0 7 5 12 10
12 13 0 13 -130 1 -163 -5 -13 -21 -27 -35 -31 -32 -8 -76 9 -76 30 0 16 1 16
18 1 33 -30 82 -16 82 24 0 15 -6 17 -35 12 -26 -4 -41 -1 -55 12 -24 22 -26
72 -3 97 18 20 63 24 81 6z m602 -8 c11 -11 20 -29 20 -40 0 -18 -7 -20 -55
-20 -56 0 -65 -6 -43 -28 15 -15 51 -15 66 0 17 17 28 2 12 -17 -18 -21 -66
-19 -90 5 -41 41 -12 120 45 120 14 0 34 -9 45 -20z m305 0 c10 -11 13 -20 7
-20 -6 0 -14 5 -17 10 -3 6 -20 10 -36 10 -36 0 -54 -35 -39 -75 7 -19 17 -25
39 -25 16 0 33 5 36 10 3 6 11 10 17 10 6 0 3 -9 -7 -20 -22 -24 -62 -26 -87
-3 -23 20 -24 80 -1 105 21 24 65 23 88 -2z m143 8 c7 -7 12 -37 12 -68 l0
-56 -44 -2 c-49 -2 -69 14 -64 50 2 19 10 23 46 26 34 3 43 7 40 20 -4 21 -44
28 -64 11 -21 -17 -28 -5 -9 15 19 19 66 21 83 4z m122 2 c0 -5 -10 -10 -22
-12 -20 -3 -23 -10 -26 -60 -4 -81 -22 -72 -22 10 l0 69 35 1 c19 1 35 -3 35
-8z m116 2 c13 -8 34 -46 34 -61 0 -7 -23 -11 -55 -11 -56 0 -65 -6 -43 -28
15 -15 51 -15 66 0 6 6 14 9 17 6 3 -3 -1 -13 -10 -22 -38 -38 -105 -3 -105
54 0 50 58 88 96 62z m274 -4 c0 -9 3 -9 12 0 17 17 58 15 80 -5 22 -20 24
-71 2 -101 -17 -24 -62 -30 -82 -10 -9 9 -12 4 -12 -25 0 -20 -4 -37 -10 -37
-6 0 -10 38 -10 95 0 57 4 95 10 95 6 0 10 -5 10 -12z m236 4 c13 -8 34 -46
34 -61 0 -7 -23 -11 -55 -11 -56 0 -65 -6 -43 -28 15 -15 51 -15 66 0 6 6 14
9 17 6 3 -3 -1 -13 -10 -22 -38 -38 -105 -3 -105 54 0 50 58 88 96 62z m158
-8 c11 -10 16 -34 16 -68 0 -53 0 -53 -32 -54 -66 -2 -80 6 -76 41 3 30 6 32
46 35 34 3 43 7 40 20 -4 21 -44 28 -64 11 -19 -16 -30 -4 -14 16 16 20 64 19
84 -1z m156 1 c16 -19 5 -34 -12 -17 -15 15 -51 15 -66 0 -7 -7 -12 -24 -12
-38 0 -14 5 -31 12 -38 15 -15 51 -15 66 0 6 6 15 8 19 4 11 -11 -27 -36 -54
-36 -32 0 -63 34 -63 70 0 17 9 39 20 50 24 24 72 26 90 5z m152 -2 c10 -9 18
-27 18 -40 0 -21 -4 -23 -55 -23 -30 0 -55 -4 -55 -8 0 -16 25 -32 50 -32 14
0 31 5 38 12 7 7 12 8 12 2 0 -18 -24 -34 -51 -34 -30 0 -69 40 -69 70 0 10 9
29 21 44 24 30 63 34 91 9z m218 -3 c41 -41 12 -120 -45 -120 -14 0 -34 9 -45
20 -41 41 -12 120 45 120 14 0 34 -9 45 -20z m76 -32 c24 -77 25 -77 49 -13
13 33 28 61 34 63 10 3 -31 -123 -44 -136 -13 -13 -35 13 -50 60 -10 29 -20
59 -23 66 -2 6 0 12 6 12 6 0 18 -24 28 -52z m210 44 c13 -8 34 -46 34 -61 0
-7 -23 -11 -55 -11 -56 0 -65 -6 -43 -28 15 -15 51 -15 66 0 6 6 14 9 17 6 3
-3 -1 -13 -10 -22 -38 -38 -105 -3 -105 54 0 50 58 88 96 62z m155 -8 c7 -8
14 -39 17 -67 l4 -53 -51 -2 c-41 -2 -52 2 -61 18 -17 32 4 60 44 60 38 0 47
6 39 26 -6 17 -60 19 -66 2 -2 -7 -8 -10 -12 -6 -14 13 16 38 45 38 15 0 33
-7 41 -16z m163 -6 c18 -25 22 -118 6 -118 -5 0 -10 22 -10 49 0 54 -15 74
-52 69 -21 -3 -23 -9 -26 -60 -4 -81 -22 -73 -22 10 l0 67 44 3 c37 2 47 -1
60 -20z m321 2 c10 -11 13 -20 7 -20 -6 0 -14 5 -17 10 -3 6 -20 10 -36 10
-36 0 -54 -35 -39 -75 7 -19 17 -25 39 -25 16 0 33 5 36 10 3 6 11 10 17 10 6
0 3 -9 -7 -20 -22 -24 -62 -26 -87 -3 -23 20 -24 80 -1 105 21 24 65 23 88 -2z
m154 -6 c12 -15 21 -34 21 -44 0 -10 -9 -29 -21 -44 -40 -51 -109 -24 -109 42
0 70 68 98 109 46z m313 9 c10 -9 18 -27 18 -40 0 -21 -4 -23 -55 -23 -53 0
-55 -1 -45 -20 11 -21 64 -28 75 -10 3 6 11 10 17 10 6 0 3 -9 -7 -20 -39 -44
-105 -14 -105 48 0 63 58 95 102 55z"/>
<path d="M7364 8367 c-3 -9 -4 -28 -2 -44 2 -22 8 -28 28 -28 23 0 25 4 25 40
0 34 -3 40 -23 43 -13 2 -24 -3 -28 -11z"/>
<path d="M7937 8323 c-17 -17 -6 -34 20 -31 36 4 45 38 10 38 -13 0 -27 -3
-30 -7z"/>
<path d="M8364 8356 c-9 -38 4 -66 31 -66 25 0 38 29 29 67 -9 33 -51 32 -60
-1z"/>
<path d="M3412 6928 c-16 -16 -16 -100 0 -116 17 -17 65 -15 72 4 10 27 7 99
-6 112 -7 7 -21 12 -33 12 -12 0 -26 -5 -33 -12z"/>
<path d="M4272 6928 c-25 -25 -13 -38 34 -38 41 0 45 2 42 23 -2 16 -11 23
-33 25 -17 2 -36 -3 -43 -10z"/>
<path d="M4490 6921 c-14 -27 -13 -94 2 -109 17 -17 65 -15 72 4 10 27 7 99
-6 112 -18 18 -56 14 -68 -7z"/>
<path d="M4700 6921 c-15 -30 -14 -31 40 -31 54 0 55 1 40 31 -7 12 -21 19
-40 19 -19 0 -33 -7 -40 -19z"/>
<path d="M4911 6846 c-15 -18 -4 -44 20 -51 26 -9 69 20 69 45 0 17 -7 20 -39
20 -21 0 -44 -6 -50 -14z"/>
<path d="M1902 6368 c-25 -25 -13 -38 33 -38 30 0 45 4 45 13 0 19 -21 37 -45
37 -12 0 -26 -5 -33 -12z"/>
<path d="M2107 6293 c-14 -13 -7 -43 12 -53 31 -16 71 4 71 35 0 22 -4 25 -38
25 -21 0 -42 -3 -45 -7z"/>
<path d="M2332 5808 c-25 -25 -13 -38 34 -38 41 0 45 2 42 23 -2 16 -11 23
-33 25 -17 2 -36 -3 -43 -10z"/>
<path d="M2553 5813 c-7 -2 -13 -13 -13 -24 0 -16 7 -19 45 -19 30 0 45 4 45
13 0 30 -40 45 -77 30z"/>
<path d="M2760 5795 c-6 -14 -10 -35 -10 -45 0 -10 4 -31 10 -45 8 -22 15 -26
42 -23 l33 3 0 65 0 65 -33 3 c-27 3 -34 -1 -42 -23z"/>
<path d="M1900 5241 c-14 -27 -13 -94 2 -109 17 -17 65 -15 72 4 10 27 7 99
-6 112 -18 18 -56 14 -68 -7z"/>
<path d="M2352 5259 c-16 -69 -16 -69 19 -69 24 0 29 4 25 18 -3 9 -10 36 -16
60 -6 23 -12 42 -14 42 -1 0 -8 -23 -14 -51z"/>
<path d="M2110 5241 c-15 -30 -14 -31 40 -31 54 0 55 1 40 31 -7 12 -21 19
-40 19 -19 0 -33 -7 -40 -19z"/>
<path d="M2762 5248 c-25 -25 -13 -38 34 -38 41 0 45 2 42 23 -2 16 -11 23
-33 25 -17 2 -36 -3 -43 -10z"/>
<path d="M3190 5241 c-5 -11 -10 -34 -10 -51 0 -47 16 -70 50 -70 34 0 50 23
50 70 0 47 -16 70 -50 70 -19 0 -33 -7 -40 -19z"/>
<path d="M3633 5253 c-7 -2 -13 -13 -13 -24 0 -16 7 -19 45 -19 30 0 45 4 45
13 0 30 -40 45 -77 30z"/>
<path d="M2744 4626 c-10 -42 -1 -71 24 -74 13 -2 30 2 37 8 13 10 11 18 -13
51 -32 45 -39 48 -48 15z"/>
<path d="M2980 4671 c-14 -27 -13 -94 2 -109 17 -17 65 -15 72 4 10 27 7 99
-6 112 -18 18 -56 14 -68 -7z"/>
<path d="M2330 4671 c-15 -29 -12 -97 4 -110 8 -7 27 -11 43 -9 27 3 28 6 31
62 3 63 -4 76 -45 76 -12 0 -27 -9 -33 -19z"/>
<path d="M2552 4678 c-13 -13 -16 -85 -6 -112 7 -19 55 -21 72 -4 16 16 16
100 0 116 -7 7 -21 12 -33 12 -12 0 -26 -5 -33 -12z"/>
<path d="M3412 4678 c-25 -25 -13 -38 33 -38 30 0 45 4 45 13 0 19 -21 37 -45
37 -12 0 -26 -5 -33 -12z"/>
<path d="M3617 4603 c-14 -13 -7 -43 12 -53 28 -14 38 -13 61 10 34 34 26 50
-23 50 -24 0 -47 -3 -50 -7z"/>
<path d="M4272 4678 c-25 -25 -13 -38 34 -38 41 0 45 2 42 23 -2 16 -11 23
-33 25 -17 2 -36 -3 -43 -10z"/>
<path d="M2110 4111 c-15 -30 -14 -31 40 -31 54 0 55 1 40 31 -7 12 -21 19
-40 19 -19 0 -33 -7 -40 -19z"/>
<path d="M2330 4105 c-6 -14 -10 -35 -10 -45 0 -10 4 -31 10 -45 8 -22 15 -26
42 -23 l33 3 0 65 0 65 -33 3 c-27 3 -34 -1 -42 -23z"/>
<path d="M2553 4123 c-7 -2 -13 -13 -13 -24 0 -16 7 -19 45 -19 30 0 45 4 45
13 0 30 -40 45 -77 30z"/>
<path d="M2757 4043 c-15 -15 -6 -52 13 -58 27 -9 70 19 70 45 0 16 -7 20 -38
20 -21 0 -42 -3 -45 -7z"/>
<path d="M1926 2454 c-12 -31 -7 -45 17 -42 30 4 39 58 9 58 -11 0 -23 -7 -26
-16z"/>
<path d="M2090 2480 c0 -40 0 -40 40 -40 28 0 42 5 49 18 16 30 -13 62 -55 62
-33 0 -34 -1 -34 -40z"/>
<path d="M3876 2448 c-9 -35 -8 -38 18 -38 17 0 25 7 28 25 6 28 1 35 -23 35
-9 0 -19 -10 -23 -22z"/>
<path d="M5096 2454 c-12 -31 -7 -45 17 -42 30 4 39 58 9 58 -11 0 -23 -7 -26
-16z"/>
<path d="M6852 2448 c-7 -7 -12 -24 -12 -38 0 -31 17 -50 45 -50 28 0 45 19
45 50 0 31 -17 50 -45 50 -12 0 -26 -5 -33 -12z"/>
<path d="M7318 2435 c-16 -35 3 -75 35 -75 30 0 47 18 47 50 0 52 -61 71 -82
25z"/>
<path d="M2362 2448 c-7 -7 -12 -24 -12 -38 0 -31 17 -50 45 -50 28 0 45 19
45 50 0 31 -17 50 -45 50 -12 0 -26 -5 -33 -12z"/>
<path d="M2510 2440 c-22 -42 19 -92 59 -71 25 14 32 36 21 66 -12 32 -64 35
-80 5z"/>
<path d="M2770 2395 c-15 -19 -5 -35 24 -35 25 0 46 17 46 37 0 18 -55 17 -70
-2z"/>
<path d="M3616 2444 c-12 -31 -6 -63 14 -74 40 -22 83 27 60 70 -13 25 -65 28
-74 4z"/>
<path d="M4212 2448 c-21 -21 -13 -28 33 -28 25 0 45 4 45 8 0 15 -24 32 -45
32 -12 0 -26 -5 -33 -12z"/>
<path d="M4673 2403 c-7 -2 -13 -14 -13 -24 0 -17 6 -20 33 -17 24 2 33 8 35
26 3 17 -1 22 -20 21 -13 0 -29 -3 -35 -6z"/>
<path d="M4912 2448 c-21 -21 -13 -28 33 -28 25 0 45 4 45 8 0 15 -24 32 -45
32 -12 0 -26 -5 -33 -12z"/>
<path d="M5258 2435 c-16 -35 3 -75 35 -75 30 0 47 18 47 50 0 52 -61 71 -82
25z"/>
<path d="M5422 2448 c-21 -21 -13 -28 33 -28 25 0 45 4 45 8 0 15 -24 32 -45
32 -12 0 -26 -5 -33 -12z"/>
<path d="M5570 2395 c-15 -19 -5 -35 24 -35 25 0 46 17 46 37 0 18 -55 17 -70
-2z"/>
<path d="M5872 2448 c-21 -21 -13 -28 34 -28 38 0 45 3 42 18 -4 21 -57 29
-76 10z"/>
<path d="M6092 2448 c-7 -7 -12 -24 -12 -38 0 -31 17 -50 45 -50 28 0 45 19
45 50 0 31 -17 50 -45 50 -12 0 -26 -5 -33 -12z"/>
<path d="M6392 2448 c-21 -21 -13 -28 33 -28 25 0 45 4 45 8 0 15 -24 32 -45
32 -12 0 -26 -5 -33 -12z"/>
<path d="M6540 2395 c-16 -19 -4 -35 25 -35 24 0 51 31 38 44 -12 11 -50 6
-63 -9z"/>
<path d="M7160 2435 c-15 -40 3 -75 40 -75 39 0 59 36 42 75 -9 19 -19 25 -42
25 -23 0 -33 -6 -40 -25z"/>
<path d="M7480 2440 c-10 -19 -8 -20 40 -20 48 0 50 1 40 20 -7 13 -21 20 -40
20 -19 0 -33 -7 -40 -20z"/>
</g>
</svg>
